{"title":"Work.Of.Art.The.Next.Great.Artist.S02E05-][ Ripped From the Head","uid":6817125,"size":348718398,"categoryP":"video","categoryS":"tv_shows","magnet":"?xt=urn:btih:8c4d8fd28b19d3d5cbb21f9ac9371dc41f42978b&amp;dn=Work.Of.Art.The.Next.Great.Artist.S02E05-%5D%5B+Ripped+From+the+Head&amp;tr=udp%3A%2F%2Ftracker.openbittorrent.com%3A80&amp;tr=udp%3A%2F%2Fopen.demonii.com%3A1337&amp;tr=udp%3A%2F%2Ftracker.coppersurfer.tk%3A6969&amp;tr=udp%3A%2F%2Fexodus.desync.com%3A6969","seeders":0,"leechers":1,"uploader":"psspss","files":2,"time":1321258169,"description":"Work.Of.Art.The.Next.Great.Artist.S02E05-][ Ripped From the Headlines ][ 10-Nov-2011 ].avi\n\n\nmy convert of the show\nxvid High quality 330mb mp3 audio 640x352 pixels\n\nenjoy and help to seed! may take 2 hours to seed out\nmax speed up to 50kb/s\n\nMediainfo\n\nGeneral\nComplete name                    : J:\\Work.Of.Art.The.Next.Great.Artist.S02E05-][ Ripped From the Headlines ][ 10-Nov-2011 ].avi\nFormat                           : AVI\nFormat/Info                      : Audio Video Interleave\nFile size                        : 333 MiB\nDuration                         : 43mn 49s\nOverall bit rate                 : 1 061 Kbps\n\nVideo\nID                               : 0\nFormat                           : MPEG-4 Visual\nFormat profile                   : Advanced Simple@L5\nFormat settings, BVOP            : 2\nFormat settings, QPel            : No\nFormat settings, GMC             : No warppoints\nFormat settings, Matrix          : Default (H.263)\nCodec ID                         : XVID\nCodec ID/Hint                    : XviD\nDuration                         : 43mn 49s\nBit rate                         : 920 Kbps\nWidth                            : 640 pixels\nHeight                           : 352 pixels\nDisplay aspect ratio             : 16:9\nFrame rate                       : 23.976 fps\nColor space                      : YUV\nChroma subsampling               : 4:2:0\nBit depth                        : 8 bits\nScan type                        : Progressive\nCompression mode                 : Lossy\nBits/(Pixel*Frame)               : 0.170\nStream size                      : 288 MiB (87%)\nWriting library                  : XviD 1.2.1 (UTC 2008-12-04)\n\nAudio\nID                               : 1\nFormat                           : MPEG Audio\nFormat version                   : Version 1\nFormat profile                   : Layer 3\nCodec ID                         : 55\nCodec ID/Hint                    : MP3\nDuration                         : 43mn 48s\nBit rate mode                    : Constant\nBit rate                         : 128 Kbps\nChannel(s)                       : 2 channels\nSampling rate                    : 48.0 KHz\nCompression mode                 : Lossy\nStream size                      : 40.1 MiB (12%)\nAlignment                        : Split accross interleaves\nInterleave, duration             : 24 ms (0.58 video frame)\n\n\n","torrent":{"xt":"urn:btih:8c4d8fd28b19d3d5cbb21f9ac9371dc41f42978b","amp;dn":"Work.Of.Art.The.Next.Great.Artist.S02E05-%5D%5B+Ripped+From+the+Head","amp;tr":["udp%3A%2F%2Ftracker.openbittorrent.com%3A80","udp%3A%2F%2Fopen.demonii.com%3A1337","udp%3A%2F%2Ftracker.coppersurfer.tk%3A6969","udp%3A%2F%2Fexodus.desync.com%3A6969"],"infoHash":"8c4d8fd28b19d3d5cbb21f9ac9371dc41f42978b","infoHashBuffer":{"type":"Buffer","data":[140,77,143,210,139,25,211,213,203,178,31,154,201,55,29,196,31,66,151,139]},"announce":[],"urlList":[]}}